<svg width="66" height="76" fill="none"
  xmlns="http://www.w3.org/2000/svg">
  <path fill-rule="evenodd" clip-rule="evenodd" d="M5.66 5.6H4.7v3.37H2.63V.44H4.7v3.3h.79L7.12.44h2.5L7.26 4.38l2.63 4.6H7.47L5.67 5.6zm11.97.48v2.9h-2.06V.43h3.4c.66 0 1.24.12 1.74.37.5.24.89.58 1.16 1.02.28.44.42.95.42 1.5 0 .84-.3 1.5-.9 2-.6.5-1.4.75-2.45.75h-1.3zm0-1.59h1.35c.4 0 .7-.1.9-.3.22-.2.32-.48.32-.84 0-.4-.1-.72-.32-.96-.21-.23-.5-.35-.88-.36h-1.37V4.5zm16.21.87h-3.23v2.03h3.82v1.58h-5.88V.44h5.89v1.6H30.6v1.79h3.23v1.53zM43.13.44l1.9 5.94 1.9-5.94h2.7v8.53h-2.06V6.98l.2-4.08-2.06 6.07h-1.36L42.28 2.9l.2 4.08v2h-2.05V.43h2.7zm17.13 2.37c0-.27-.1-.49-.31-.65-.21-.16-.5-.25-.85-.25-.33 0-.6.08-.8.24-.2.16-.3.37-.3.63h-2.05c0-.47.13-.9.4-1.26.27-.38.65-.66 1.14-.87A4.04 4.04 0 0159.1.33c1.02 0 1.8.22 2.37.64.57.43.85 1.02.85 1.79 0 .39-.12.75-.35 1.07-.22.32-.54.57-.94.76.46.17.81.42 1.06.75.24.33.36.75.36 1.24 0 .77-.3 1.38-.91 1.83-.6.45-1.42.68-2.44.68-.94 0-1.72-.22-2.34-.67a2.12 2.12 0 01-.93-1.81h2.06c0 .25.11.47.34.64.23.17.52.26.87.26.39 0 .7-.09.93-.27a.84.84 0 00.36-.7c0-.42-.1-.72-.3-.9-.2-.17-.5-.26-.9-.26H58.1V3.86h1.17c.66-.02 1-.37 1-1.05zM6.04 72.35l-.84.93v2.25H3.14V67H5.2v3.76l.72-1.08L7.76 67h2.54l-2.88 3.77 2.88 4.76H7.86l-1.82-3.18zm13.11.17h-1.11v3.01h-2.06V67h3.36c1 0 1.8.22 2.37.67.57.45.86 1.09.86 1.9 0 .6-.12 1.1-.37 1.48-.24.4-.61.71-1.12.95l1.78 3.44v.1h-2.2l-1.51-3.02zm-1.11-1.59h1.3c.39 0 .68-.1.88-.3.2-.21.3-.5.3-.87 0-.36-.1-.65-.3-.86-.2-.2-.5-.31-.88-.31h-1.3v2.34zm16.22.99h-3.23v2.03h3.82v1.58h-5.88V67h5.89v1.59h-3.83v1.8h3.23v1.53zM43.54 67l1.9 5.93 1.9-5.93h2.71v8.53H48v-2l.2-4.07-2.06 6.07h-1.36l-2.07-6.08.2 4.09v1.99h-2.06V67h2.7zm15.3 6.95h4.07v1.58h-6.64v-1.08l4.07-5.86h-4.1v-1.6h6.63v1.06l-4.03 5.9zM4.26 12.85H.1L3.3 15.5l22.3 18.56L3.1 61.2l-2.04 2.46H65.9l-3.19-2.65-21.8-18.14 22.02-27.6 1.94-2.43H4.26zM33.6 29.1l-3.78 4.55 8.76 7.29 20.04-25.1H8.4l19.11 15.9 3.74-4.52-3.69-2.96 11.93-5.03-2.31 12.74-3.58-2.87zM7.45 60.66l20.47-24.69 8.8 7.33-3.27 4.1-3.73-2.98-2.28 12.75 11.92-5.06-3.57-2.85 3.23-4.05L57.6 60.66H7.45z" fill="#fff"/>
</svg>